<?xml version="1.0" encoding="utf-8"?>
<!-- Generator: Adobe Illustrator 16.0.0, SVG Export Plug-In . SVG Version: 6.00 Build 0)  -->
<!DOCTYPE svg PUBLIC "-//W3C//DTD SVG 1.1//EN" "http://www.w3.org/Graphics/SVG/1.1/DTD/svg11.dtd">
<svg version="1.1" id="Capa_1" xmlns="http://www.w3.org/2000/svg" xmlns:xlink="http://www.w3.org/1999/xlink" x="0px" y="0px"
	 width="960px" height="560px" viewBox="0 0 960 560" enable-background="new 0 0 960 560" xml:space="preserve">
<g>
	<path fill="#68776C" d="M206.446,265.624c0,16.17-11.354,32.117-25.23,35.439l-82.623,19.781
		c-13.876,3.319-25.226-7.191-25.226-23.361v-96.287c0-16.17,11.349-32.117,25.226-35.439l82.623-19.781
		c13.876-3.322,25.23,7.191,25.23,23.362V265.624z"/>
	<path fill="#68776C" d="M370.36,384.883h9.268v29.084h4.464v-29.084h9.222v-4.234H370.36V384.883z M262.329,401.321
		c0,6.482-2.622,9.374-8.501,9.374c-5.88,0-8.502-2.892-8.502-9.374v-20.673h-4.464v20.673c0,8.969,4.363,13.517,12.966,13.517
		s12.965-4.548,12.965-13.517v-20.673h-4.464V401.321z M276.919,384.883h9.268v29.084h4.464v-29.084h9.217v-4.234h-22.949V384.883z
		 M874.477,398.323h0.148c5.961,0,9.111-2.93,9.111-8.473c0-3.216-1.157-5.945-3.176-7.5c-0.886-0.674-1.805-1.109-2.803-1.329
		c-1.068-0.246-2.755-0.373-4.875-0.373h-7.966v33.318h4.325v-15.644h0.159l11.901,15.542l0.076,0.102H887L874.477,398.323z
		 M869.242,394.915v-10.448h2.725c2.922,0,4.902,0.416,5.893,1.231c0.997,0.784,1.506,2.197,1.506,4.198
		c0,1.914-0.476,3.195-1.455,3.925c-0.998,0.734-2.94,1.094-5.943,1.094H869.242z M323.876,379.914
		c-4.618,0-9.197,1.849-12.568,5.069c-3.411,3.322-5.213,7.606-5.213,12.393c0,4.688,1.852,9.07,5.212,12.339
		c3.353,3.305,7.817,5.123,12.57,5.123c4.712,0,9.311-1.866,12.615-5.123c3.381-3.335,5.167-7.599,5.167-12.339
		c0-4.771-1.786-9.055-5.169-12.393C333.119,381.763,328.521,379.914,323.876,379.914z M333.187,406.734
		c-2.516,2.561-5.735,3.915-9.311,3.915c-3.526,0-6.746-1.354-9.311-3.915c-2.532-2.577-3.871-5.813-3.871-9.358
		c0-3.605,1.338-6.872,3.871-9.455c2.481-2.527,5.701-3.864,9.311-3.864c3.565,0,6.785,1.337,9.312,3.869
		c2.495,2.497,3.869,5.854,3.869,9.45C337.058,400.967,335.719,404.203,333.187,406.734z M207.787,384.883h9.268v29.084h4.464
		v-29.084h9.222v-4.234h-22.954V384.883z M193.065,413.967h4.419v-33.318h-4.419V413.967z M115.354,405.149l-23.989-26.197v35.015
		h4.231v-24.232l23.995,25.919v-35.005h-4.236V405.149z M419.014,369.594h-5.192l-4.893,8.315h3.286L419.014,369.594z
		 M73.108,413.967h4.418v-33.318h-4.418V413.967z M145.628,395.259l-4.682-2.065c-2.935-1.267-4.244-2.821-4.244-5.039
		c0-2.656,1.949-4.513,4.739-4.513c2.185,0,3.927,1.19,5.325,3.634l0.135,0.235l3.636-2.34l-0.103-0.207
		c-1.645-3.333-4.661-5.095-8.721-5.095c-2.725,0-5.02,0.792-6.822,2.359c-1.761,1.57-2.655,3.581-2.655,5.971
		c0,4.12,2.167,7.034,6.625,8.908l3.991,1.702c3.318,1.412,4.931,3.479,4.931,6.32c0,3.491-2.531,5.839-6.299,5.839
		c-3.173,0-5.338-2.026-6.261-5.854l-0.076-0.314l-4.014,1.979l0.051,0.202c1.256,4.966,5.01,7.812,10.299,7.812
		c3.202,0,5.824-0.949,7.798-2.826c1.967-1.922,2.965-4.438,2.965-7.479C152.25,400.253,150.021,397.148,145.628,395.259z
		 M159.808,384.883h9.263v29.084h4.469v-29.084h9.217v-4.234h-22.949V384.883z M724.819,382.348c-0.849-0.61-1.887-1.04-3.074-1.278
		c-1.172-0.284-2.919-0.421-5.338-0.421h-7.14v33.318h4.324v-14.728h2.815c2.333,0,4.141-0.124,5.374-0.369
		c1.121-0.228,2.114-0.661,3.035-1.327c2.165-1.544,3.457-4.383,3.457-7.599C728.273,386.731,726.981,383.89,724.819,382.348z
		 M721.91,394.089c-1.092,0.74-3.252,1.1-6.602,1.1h-1.717v-10.442h1.717c3.221,0,5.424,0.415,6.553,1.235
		c1.112,0.772,1.677,2.183,1.677,4.193C723.538,392.033,722.988,393.35,721.91,394.089z M403.571,413.967h17.813v-4.143H407.99
		v-12.053h13.395v-4.143H407.99v-8.883h13.395v-4.098h-17.813V413.967z M691.152,401.321c0,6.482-2.623,9.374-8.503,9.374
		c-5.882,0-8.508-2.892-8.508-9.374v-20.673h-4.457v20.673c0,8.969,4.36,13.517,12.965,13.517s12.964-4.548,12.964-13.517v-20.673
		h-4.461V401.321z M800.328,413.967h4.416v-33.318h-4.416V413.967z M738.994,413.967h17.812v-4.143H743.41v-12.053h13.396v-4.143
		H743.41v-8.883h13.396v-4.098h-17.812V413.967z M779.027,398.323c5.961,0,9.11-2.93,9.11-8.473c0-3.219-1.157-5.95-3.175-7.5
		c-0.887-0.674-1.806-1.109-2.804-1.329c-1.068-0.246-2.755-0.373-4.874-0.373h-7.966v33.318h4.324v-15.644h0.16l11.901,15.542
		l0.075,0.102h5.622l-12.524-15.644H779.027z M773.644,394.915v-10.448h2.72c2.925,0,4.907,0.416,5.897,1.231
		c1,0.779,1.507,2.192,1.507,4.198c0,1.914-0.477,3.195-1.456,3.925c-0.998,0.734-2.942,1.094-5.948,1.094H773.644z
		 M652.109,395.259l-4.685-2.065c-2.939-1.271-4.251-2.823-4.251-5.039c0-2.656,1.954-4.513,4.75-4.513
		c2.185,0,3.927,1.19,5.325,3.634l0.137,0.235l3.628-2.34l-0.102-0.207c-1.643-3.333-4.658-5.095-8.72-5.095
		c-2.72,0-5.014,0.792-6.822,2.359c-1.762,1.57-2.653,3.581-2.653,5.971c0,4.117,2.168,7.032,6.624,8.908l3.99,1.702
		c3.322,1.412,4.938,3.479,4.938,6.32c0,3.491-2.532,5.839-6.301,5.839c-3.175,0-5.343-2.026-6.264-5.854l-0.076-0.314l-4.016,1.979
		l0.053,0.202c1.253,4.966,5.011,7.812,10.303,7.812c3.203,0,5.824-0.949,7.794-2.826c1.966-1.922,2.963-4.438,2.963-7.479
		C658.726,400.253,656.5,397.148,652.109,395.259z M834.855,379.914c-4.621,0-9.201,1.849-12.572,5.069
		c-3.41,3.322-5.213,7.606-5.213,12.393c0,4.688,1.851,9.07,5.211,12.339c3.353,3.305,7.819,5.123,12.574,5.123
		c4.715,0,9.311-1.866,12.61-5.123c3.383-3.337,5.171-7.604,5.171-12.339c0-4.766-1.788-9.05-5.174-12.393
		C844.098,381.763,839.502,379.914,834.855,379.914z M844.161,406.734c-2.515,2.561-5.732,3.915-9.306,3.915
		c-3.534,0-6.756-1.354-9.311-3.915c-2.534-2.575-3.877-5.811-3.877-9.358c0-3.605,1.343-6.875,3.877-9.455
		c2.477-2.527,5.695-3.864,9.311-3.864c3.563,0,6.781,1.337,9.309,3.869c2.494,2.492,3.869,5.85,3.869,9.45
		C848.033,400.972,846.693,404.208,844.161,406.734z M497.565,405.149l-23.991-26.197v35.015h4.236v-24.232l23.541,25.433
		l0.447,0.486v-35.005h-4.233V405.149z M449.977,379.869c-4.879,0-9.045,1.646-12.379,4.887c-3.51,3.378-5.215,7.536-5.215,12.711
		c0,5.875,2.663,10.952,7.498,14.297c2.947,2.011,6.344,3.074,9.823,3.074c4.03,0,7.908-1.254,11.211-3.629l0.109-0.078v-6.017
		l-0.457,0.537c-2.884,3.378-6.43,5.089-10.539,5.089c-4.336,0-8.289-2.084-10.841-5.712c-1.483-2.178-2.203-4.664-2.203-7.606
		c0-3.818,1.207-6.926,3.691-9.501c2.356-2.446,5.783-3.909,9.166-3.909c4.275,0,7.685,1.563,10.731,4.915l0.452,0.496v-5.897
		l-0.113-0.076C457.39,381.039,453.813,379.869,449.977,379.869z M549.936,379.869c-4.88,0-9.045,1.646-12.38,4.887
		c-3.513,3.375-5.219,7.533-5.219,12.711c0,5.872,2.664,10.949,7.5,14.297c2.942,2.011,6.341,3.074,9.825,3.074
		c4.025,0,7.902-1.254,11.207-3.629l0.106-0.078v-6.017l-0.456,0.537c-2.879,3.378-6.427,5.089-10.539,5.089
		c-4.332,0-8.282-2.084-10.835-5.712c-1.486-2.175-2.21-4.664-2.21-7.606c0-3.818,1.207-6.926,3.691-9.501
		c2.354-2.446,5.786-3.909,9.172-3.909c4.276,0,7.685,1.563,10.726,4.915l0.451,0.498v-5.899l-0.112-0.076
		C557.344,381.039,553.769,379.869,549.936,379.869z M515.595,413.967h4.416v-33.318h-4.416V413.967z M589.801,379.914
		c-4.621,0-9.201,1.849-12.566,5.069c-3.411,3.322-5.214,7.606-5.214,12.393c0,4.688,1.851,9.07,5.211,12.339
		c3.348,3.305,7.812,5.123,12.569,5.123c4.718,0,9.316-1.866,12.615-5.123c3.381-3.335,5.166-7.599,5.166-12.339
		c0-4.771-1.785-9.055-5.168-12.393C599.049,381.763,594.452,379.914,589.801,379.914z M599.111,406.734
		c-2.514,2.561-5.735,3.915-9.311,3.915c-3.529,0-6.75-1.354-9.311-3.915c-2.532-2.572-3.871-5.809-3.871-9.358
		c0-3.61,1.339-6.877,3.871-9.455c2.481-2.527,5.7-3.864,9.311-3.864c3.565,0,6.786,1.337,9.313,3.869
		c2.494,2.497,3.869,5.854,3.869,9.45C602.983,400.967,601.644,404.203,599.111,406.734z"/>
	<path fill="#2781BB" d="M228.456,297.706c0,16.168-13.233,29.398-29.403,29.398h-96.287c-16.17,0-29.398-13.23-29.398-29.398
		v-96.287c0-16.17,13.228-29.403,29.398-29.403h96.287c16.17,0,29.403,13.233,29.403,29.403V297.706z"/>
	<g>
		<path fill="#2781BB" d="M387.585,280.761c1.702,12.969,12.964,22.318,31.247,22.318c9.566,0,22.105-3.61,28.056-9.773
			l16.58,16.365c-11.055,11.478-29.12,17.006-45.062,17.006c-36.134,0-57.601-22.321-57.601-55.907
			c0-31.88,21.68-54.838,55.687-54.838c35.075,0,56.968,21.683,52.932,64.83H387.585z M444.553,259.294
			c-1.702-13.603-12.332-20.404-27.21-20.404c-14.028,0-25.509,6.801-29.333,20.404H444.553z"/>
		<path fill="#2781BB" d="M576.451,310.519c-12.113,11.906-24.865,16.586-40.387,16.586c-30.391,0-55.687-18.282-55.687-55.479
			c0-37.202,25.296-55.484,55.687-55.484c14.884,0,26.359,4.254,37.84,15.522l-16.367,17.213c-6.164-5.525-13.816-8.29-21.043-8.29
			c-17.431,0-30.188,12.757-30.188,31.039c0,19.978,13.607,30.606,29.758,30.606c8.295,0,16.58-2.338,22.961-8.713L576.451,310.519z
			"/>
		<path fill="#68776C" d="M728.091,219.119h24.871v104.795h-24.445l-1.276-15.305c-5.951,12.326-22.313,18.282-34.007,18.495
			c-31.034,0.21-53.995-18.92-53.995-55.692c0-36.139,24.025-55.059,54.634-54.846c14.027,0,27.417,6.591,33.368,17.006
			L728.091,219.119z M665.178,271.413c0,19.978,13.815,31.879,31.033,31.879c40.809,0,40.809-63.554,0-63.554
			C678.993,239.738,665.178,251.429,665.178,271.413z"/>
		<path fill="#68776C" d="M798.672,175.328v58.037c6.163-10.848,23.382-16.798,34.432-16.798c30.613,0,53.357,18.708,53.357,54.846
			c0,34.432-23.169,54.841-53.99,54.841c-12.757,0-25.722-4.254-33.799-16.796l-1.702,14.456h-24.232V175.328H798.672z
			 M800.373,271.413c0,18.915,14.028,30.819,30.396,30.819c16.575,0,29.758-12.542,29.758-30.819
			c0-18.92-13.183-30.611-29.758-30.611C814.401,240.802,800.373,253.13,800.373,271.413z"/>
		<path fill="#2781BB" d="M321.831,191.453v27.494h28.653v22.123h-28.871v44.877c0,9.905,5.479,14.752,13.491,14.752
			c4,0,8.634-1.266,12.428-3.16l7.171,21.91c-7.378,2.95-13.486,4.217-21.285,4.424c-22.546,0.846-37.298-12.007-37.298-37.926
			V241.07h-19.381v-22.123h19.381v-21.857L321.831,191.453z"/>
		<path fill="#68776C" d="M625.099,175.328v147.284h-25.493V180.884L625.099,175.328z"/>
	</g>
	<path fill="#FFFFFF" d="M136.962,287.079c-7.509,4.887-13.652,1.555-13.652-7.402v-60.822c0-8.956,6.143-12.288,13.652-7.401
		l44.478,28.93c7.508,4.89,7.508,12.876,0,17.766L136.962,287.079z"/>
</g>
</svg>
